<?xml version="1.0" encoding="UTF-8" standalone="no"?>
<!DOCTYPE svg PUBLIC "-//W3C//DTD SVG 1.1//EN" "http://www.w3.org/Graphics/SVG/1.1/DTD/svg11.dtd">
<svg width="100%" height="100%" viewBox="0 0 367 367" version="1.1" xmlns="http://www.w3.org/2000/svg" xmlns:xlink="http://www.w3.org/1999/xlink" xml:space="preserve" xmlns:serif="http://www.serif.com/" style="fill-rule:evenodd;clip-rule:evenodd;stroke-linejoin:round;stroke-miterlimit:2;">
    <g transform="matrix(0.890572,0,0,0.890572,-172.867,-68.7853)">
        <g>
            <path d="M400,77.237C513.635,77.237 605.893,169.495 605.893,283.13C605.893,396.765 513.635,489.022 400,489.022C286.365,489.022 194.107,396.765 194.107,283.13C194.107,169.495 286.365,77.237 400,77.237ZM400,93.528C504.644,93.528 589.601,178.486 589.601,283.13C589.601,387.774 504.644,472.731 400,472.731C295.356,472.731 210.399,387.774 210.399,283.13C210.399,178.486 295.356,93.528 400,93.528Z" style="fill:rgb(57,136,133);"/>
            <g transform="matrix(1.04613,0,0,1.04613,236.138,308.211)">
                <path d="M6.12,0L6.12,-48.024L36.432,-48.024L36.432,-43.128L11.304,-43.128L11.304,-26.568L33.408,-26.568L33.408,-21.528L11.304,-21.528L11.304,-4.896L36.432,-4.896L36.432,0L6.12,0Z" style="fill:rgb(57,136,133);fill-rule:nonzero;"/>
                <path d="M47.952,0L47.952,-48.024L53.568,-48.024L71.352,-20.736L67.824,-19.944L86.616,-48.024L92.232,-48.024L92.232,0L87.048,0L87.048,-42.84L89.352,-42.84L69.552,-15.048L51.264,-42.264L53.136,-44.928L53.136,0L47.952,0Z" style="fill:rgb(57,136,133);fill-rule:nonzero;"/>
                <path d="M109.656,-18.36L109.656,0L104.472,0L104.472,-48.024L121.536,-48.024C126.912,-48.024 131.028,-46.752 133.884,-44.208C136.74,-41.664 138.168,-37.992 138.168,-33.192C138.168,-28.392 136.74,-24.72 133.884,-22.176C131.028,-19.632 126.912,-18.36 121.536,-18.36L109.656,-18.36ZM109.656,-23.328L120.888,-23.328C123.576,-23.328 125.724,-23.616 127.332,-24.192C128.94,-24.768 130.152,-25.548 130.968,-26.532C131.784,-27.516 132.324,-28.584 132.588,-29.736C132.852,-30.888 132.984,-32.04 132.984,-33.192C132.984,-34.344 132.852,-35.496 132.588,-36.648C132.324,-37.8 131.784,-38.868 130.968,-39.852C130.152,-40.836 128.94,-41.616 127.332,-42.192C125.724,-42.768 123.576,-43.056 120.888,-43.056L109.656,-43.056L109.656,-23.328Z" style="fill:rgb(57,136,133);fill-rule:nonzero;"/>
                <path d="M168.336,0.72C163.584,0.72 159.612,-0.204 156.42,-2.052C153.228,-3.9 150.828,-6.648 149.22,-10.296C147.612,-13.944 146.808,-18.504 146.808,-23.976C146.808,-32.136 148.62,-38.292 152.244,-42.444C155.868,-46.596 161.232,-48.672 168.336,-48.672C173.136,-48.672 177.132,-47.748 180.324,-45.9C183.516,-44.052 185.916,-41.304 187.524,-37.656C189.132,-34.008 189.936,-29.448 189.936,-23.976C189.936,-15.816 188.124,-9.66 184.5,-5.508C180.876,-1.356 175.488,0.72 168.336,0.72ZM168.336,-4.176C172.128,-4.176 175.224,-4.872 177.624,-6.264C180.024,-7.656 181.788,-9.816 182.916,-12.744C184.044,-15.672 184.608,-19.416 184.608,-23.976C184.608,-28.536 184.044,-32.268 182.916,-35.172C181.788,-38.076 180.024,-40.236 177.624,-41.652C175.224,-43.068 172.128,-43.776 168.336,-43.776C164.592,-43.776 161.52,-43.068 159.12,-41.652C156.72,-40.236 154.956,-38.076 153.828,-35.172C152.7,-32.268 152.136,-28.536 152.136,-23.976C152.136,-19.416 152.7,-15.672 153.828,-12.744C154.956,-9.816 156.72,-7.656 159.12,-6.264C161.52,-4.872 164.592,-4.176 168.336,-4.176Z" style="fill:rgb(57,136,133);fill-rule:nonzero;"/>
                <path d="M210.384,0L194.976,-48.024L200.448,-48.024L214.2,-4.464L212.616,-4.464L225.72,-48.024L230.904,-48.024L244.44,-3.816L242.424,-3.816L256.176,-48.024L261.648,-48.024L246.168,0L240.912,0L227.448,-42.552L229.176,-42.552L215.712,0L210.384,0Z" style="fill:rgb(57,136,133);fill-rule:nonzero;"/>
                <path d="M288.36,0.72C282.408,0.72 277.788,-1.032 274.5,-4.536C271.212,-8.04 269.568,-13.056 269.568,-19.584L269.568,-48.024L274.752,-48.024L274.752,-19.296C274.752,-14.16 275.904,-10.356 278.208,-7.884C280.512,-5.412 283.896,-4.176 288.36,-4.176C292.824,-4.176 296.232,-5.412 298.584,-7.884C300.936,-10.356 302.112,-14.16 302.112,-19.296L302.112,-48.024L307.152,-48.024L307.152,-19.584C307.152,-15.216 306.408,-11.52 304.92,-8.496C303.432,-5.472 301.296,-3.18 298.512,-1.62C295.728,-0.06 292.344,0.72 288.36,0.72Z" style="fill:rgb(57,136,133);fill-rule:nonzero;"/>
            </g>
        </g>
    </g>
</svg>
